<?xml version="1.0" encoding="UTF-8" standalone="no"?>
<!DOCTYPE svg PUBLIC "-//W3C//DTD SVG 1.1//EN" "http://www.w3.org/Graphics/SVG/1.1/DTD/svg11.dtd">
<svg width="100%" height="100%" viewBox="0 0 211 127" version="1.1" xmlns="http://www.w3.org/2000/svg" xmlns:xlink="http://www.w3.org/1999/xlink" xml:space="preserve" style="fill-rule:evenodd;clip-rule:evenodd;stroke-linejoin:round;stroke-miterlimit:1.41421;">
    <g transform="matrix(0.75,0,0,0.75,0,0)">
        <g transform="matrix(1.16071,0,-0.323323,1.16071,77.4896,-176.289)">
            <path d="M44.37,161.255C43.85,162.248 42.738,162.745 41.035,162.745C38.812,162.745 37.511,162.816 37.133,162.958C35.383,163.715 33.349,164.566 31.031,165.512C30.889,169.107 30.818,173.057 30.818,177.361C30.818,186.112 31.078,195.076 31.599,204.252C31.599,204.915 31.847,205.778 32.344,206.842C32.84,207.907 33.089,208.675 33.089,209.148C33.089,209.763 32.876,210.331 32.45,210.851C31.409,212.27 29.848,212.98 27.767,212.98C25.97,212.98 24.255,212.495 22.623,211.525C20.991,210.555 20.057,209.408 19.82,208.084C19.678,207.374 20.045,206.57 20.92,205.672C21.795,204.773 22.233,203.921 22.233,203.117C21.902,193.704 21.736,185.474 21.736,178.425C21.736,174.168 21.807,170.763 21.949,168.208C21.902,168.208 21.239,168.445 19.962,168.918C19.111,169.249 18.425,169.414 17.905,169.414C17.148,169.414 16.462,169.154 15.847,168.634C14.333,167.357 13.387,166.505 13.009,166.08C12.252,165.228 11.874,164.329 11.874,163.383C11.874,163.052 11.921,162.674 12.015,162.248C12.157,161.586 15.61,160.238 22.375,158.204C29.659,155.981 33.585,154.68 34.153,154.301C34.673,154.112 35.253,153.686 35.891,153.024C36.53,152.362 37.227,151.984 37.984,151.889C39.025,151.794 40.397,152.48 42.1,153.947C43.992,155.602 44.938,157.329 44.938,159.126C44.938,159.836 44.749,160.545 44.37,161.255Z" style="fill:none;"/>
            <path d="M66.011,174.026C65.822,175.02 64.923,175.706 63.315,176.084C61.423,176.557 60.216,177.101 59.696,177.716L48.131,191.055L48.131,201.84C48.131,202.881 48.426,203.933 49.018,204.997C49.609,206.062 49.904,206.878 49.904,207.445C49.904,208.013 49.739,208.652 49.408,209.361C48.604,211.159 46.972,212.057 44.512,212.057C42.809,212.057 41.461,211.513 40.468,210.425C39.805,209.716 39.474,208.817 39.474,207.729C39.474,207.351 39.522,206.736 39.616,205.884C39.711,205.033 39.758,204.347 39.758,203.827L39.758,177.29C39.758,176.865 39.569,176.344 39.191,175.729C38.812,175.114 38.623,174.618 38.623,174.239C38.623,173.955 38.718,173.624 38.907,173.246C39.522,172.111 41.437,171.543 44.654,171.543C47.161,171.543 48.58,172.134 48.911,173.317C49.053,173.79 49.124,174.192 49.124,174.523C49.124,175.043 48.935,175.445 48.556,175.729C48.178,176.013 47.989,176.297 47.989,176.581L48.131,179.135L54.233,172.678C54.942,171.874 55.687,171.07 56.468,170.266C57.248,169.462 58.159,169.012 59.199,168.918C60.808,168.776 62.357,169.131 63.847,169.982C65.337,170.834 66.082,171.945 66.082,173.317C66.082,173.553 66.058,173.79 66.011,174.026Z" style="fill:none;"/>
            <path d="M80.698,156.998C80.84,157.14 80.911,157.376 80.911,157.707C80.911,158.133 80.769,158.866 80.485,159.907C80.154,161.184 79.941,162.059 79.847,162.532C79.752,163.005 79.799,164.046 79.989,165.654C79.989,166.647 79.693,167.298 79.102,167.605C78.51,167.913 77.765,168.066 76.867,168.066C75.59,168.066 74.289,167.806 72.964,167.286C71.356,166.624 70.552,165.749 70.552,164.661C70.552,164.329 70.694,163.868 70.978,163.277C71.261,162.686 71.427,162.201 71.474,161.822C71.569,161.444 71.569,160.498 71.474,158.984C71.38,157.802 71.616,156.998 72.184,156.572C72.941,156.004 74.289,155.72 76.228,155.72C78.357,155.72 79.847,156.146 80.698,156.998ZM81.621,174.31C81.621,174.972 81.254,176.001 80.521,177.397C79.788,178.792 79.421,179.939 79.421,180.838L79.421,201.698C79.421,202.644 79.681,203.98 80.201,205.707C80.722,207.434 80.982,208.628 80.982,209.29C80.982,210.236 80.604,210.946 79.847,211.419C78.664,212.176 77.387,212.554 76.015,212.554C74.218,212.554 72.941,211.939 72.184,210.709C71.19,209.196 70.694,204.678 70.694,197.157C70.694,195.36 70.729,192.557 70.8,188.749C70.871,184.941 70.907,182.162 70.907,180.412C70.907,179.75 70.836,178.887 70.694,177.822C70.552,176.758 70.481,175.989 70.481,175.516C70.481,173.955 71.049,172.607 72.184,171.472C72.657,170.999 73.532,170.763 74.809,170.763C76.086,170.763 77.363,170.964 78.641,171.366C79.918,171.768 80.734,172.229 81.088,172.749C81.443,173.27 81.621,173.79 81.621,174.31Z" style="fill:none;"/>
            <path d="M121.071,171.898C121.402,172.513 121.567,173.151 121.567,173.814C121.567,174.76 121.165,175.942 120.361,177.361C119.226,179.253 118.564,180.459 118.374,180.98C116.293,186.94 113.62,194.461 110.357,203.543C109.742,206.665 108.961,208.888 108.015,210.213C106.833,212.01 105.082,212.838 102.765,212.696C100.541,212.554 99.051,212.105 98.295,211.348C97.727,210.78 97.443,209.905 97.443,208.723L97.443,207.232C97.443,206.381 97.372,205.672 97.23,205.104L89.993,179.135C89.851,178.567 89.236,177.645 88.148,176.368C87.25,175.375 86.895,174.452 87.084,173.601C87.557,171.519 89.236,170.479 92.122,170.479C92.737,170.479 93.304,170.526 93.825,170.621C95.669,170.999 97.49,174.239 99.288,180.341C100.754,186.065 102.244,191.765 103.758,197.441L111.137,174.736C111.515,173.601 111.823,172.82 112.059,172.394C112.485,171.638 113.088,171.046 113.869,170.621C114.649,170.195 115.607,169.982 116.742,169.982C118.918,169.982 120.361,170.621 121.071,171.898Z" style="fill:none;"/>
            <path d="M137.319,156.998C137.461,157.14 137.532,157.376 137.532,157.707C137.532,158.133 137.39,158.866 137.106,159.907C136.775,161.184 136.562,162.059 136.467,162.532C136.373,163.005 136.42,164.046 136.609,165.654C136.609,166.647 136.314,167.298 135.722,167.605C135.131,167.913 134.386,168.066 133.487,168.066C132.21,168.066 130.909,167.806 129.585,167.286C127.977,166.624 127.173,165.749 127.173,164.661C127.173,164.329 127.314,163.868 127.598,163.277C127.882,162.686 128.048,162.201 128.095,161.822C128.189,161.444 128.189,160.498 128.095,158.984C128,157.802 128.237,156.998 128.804,156.572C129.561,156.004 130.909,155.72 132.849,155.72C134.977,155.72 136.467,156.146 137.319,156.998ZM138.241,174.31C138.241,174.972 137.875,176.001 137.141,177.397C136.408,178.792 136.042,179.939 136.042,180.838L136.042,201.698C136.042,202.644 136.302,203.98 136.822,205.707C137.342,207.434 137.603,208.628 137.603,209.29C137.603,210.236 137.224,210.946 136.467,211.419C135.285,212.176 134.008,212.554 132.636,212.554C130.838,212.554 129.561,211.939 128.804,210.709C127.811,209.196 127.314,204.678 127.314,197.157C127.314,195.36 127.35,192.557 127.421,188.749C127.492,184.941 127.527,182.162 127.527,180.412C127.527,179.75 127.456,178.887 127.314,177.822C127.173,176.758 127.102,175.989 127.102,175.516C127.102,173.955 127.669,172.607 128.804,171.472C129.277,170.999 130.153,170.763 131.43,170.763C132.707,170.763 133.984,170.964 135.261,171.366C136.538,171.768 137.354,172.229 137.709,172.749C138.064,173.27 138.241,173.79 138.241,174.31Z" style="fill:none;"/>
            <path d="M174.002,207.232C173.292,209.55 171.542,210.709 168.751,210.709C167.805,210.709 167.048,210.544 166.481,210.213C165.724,209.692 165.203,208.652 164.92,207.091C164.352,204.394 163.784,202.289 163.217,200.776C163.075,203.377 161.656,206.014 158.96,208.687C156.263,211.36 153.543,212.696 150.8,212.696C147.347,212.696 144.958,210.402 143.634,205.813C143.161,204.111 142.924,202.502 142.924,200.989C142.924,196.59 145.171,192.829 149.665,189.707C153.354,187.531 157.067,185.379 160.804,183.25C160.994,182.446 161.088,181.666 161.088,180.909C161.088,179.442 160.686,178.579 159.882,178.319C159.078,178.059 158.392,177.929 157.824,177.929C156.831,177.929 156.015,178.248 155.376,178.887C154.738,179.525 154.135,180.128 153.567,180.696C152.999,181.074 152.266,181.95 151.368,183.321C150.658,184.409 149.878,185 149.026,185.095C147.796,185.237 146.685,184.811 145.691,183.818C144.698,182.825 144.201,181.666 144.201,180.341C144.201,179.584 144.39,178.899 144.769,178.284C145.857,176.486 147.489,174.925 149.665,173.601C152.976,171.614 157.115,170.621 162.081,170.621C165.251,170.621 167.427,172.134 168.609,175.162C169.366,177.196 169.934,181.003 170.312,186.585C170.738,193.349 171.258,198.292 171.873,201.414C171.968,202.029 172.37,202.81 173.079,203.756C173.789,204.702 174.144,205.53 174.144,206.239C174.144,206.57 174.096,206.901 174.002,207.232ZM161.656,189.778C160.237,190.535 158.829,191.315 157.434,192.119C156.039,192.924 154.75,193.988 153.567,195.312C151.864,197.252 151.013,198.907 151.013,200.279C151.013,201.414 151.438,202.597 152.29,203.827C152.763,204.489 153.283,204.82 153.851,204.82C155.081,204.82 156.417,203.448 157.86,200.705C159.302,197.961 160.568,194.319 161.656,189.778Z" style="fill:none;"/>
            <path d="M190.676,210.567C189.73,212.365 187.979,213.264 185.425,213.264C183.06,213.264 181.404,212.459 180.458,210.851C180.175,210.378 180.033,209.858 180.033,209.29C180.033,208.817 180.198,208.037 180.529,206.949C180.86,205.861 181.026,204.962 181.026,204.252L180.742,158.417C180.742,155.91 180.742,154.633 180.742,154.585C180.884,153.97 181.546,153.462 182.729,153.06C183.911,152.658 185.165,152.457 186.489,152.457C188.429,152.457 189.659,152.811 190.179,153.521C190.699,154.23 190.959,154.964 190.959,155.72C190.959,156.241 190.77,157.104 190.392,158.31C190.013,159.516 189.824,160.498 189.824,161.255L189.824,203.827C189.824,204.536 190.025,205.47 190.427,206.629C190.829,207.788 191.03,208.628 191.03,209.148C191.03,209.669 190.912,210.142 190.676,210.567Z" style="fill:none;"/>
            <path d="M53.133,232.208C52.613,233.201 51.501,233.698 49.798,233.698C47.575,233.698 46.274,233.769 45.896,233.911C44.145,234.668 42.111,235.519 39.794,236.465C39.652,240.06 39.581,244.01 39.581,248.314C39.581,257.065 39.841,266.029 40.361,275.206C40.361,275.868 40.61,276.731 41.106,277.795C41.603,278.86 41.851,279.628 41.851,280.101C41.851,280.716 41.638,281.284 41.213,281.804C40.172,283.223 38.611,283.933 36.53,283.933C34.732,283.933 33.018,283.448 31.386,282.478C29.754,281.509 28.82,280.362 28.583,279.037C28.441,278.328 28.808,277.523 29.683,276.625C30.558,275.726 30.995,274.875 30.995,274.07C30.664,264.657 30.499,256.427 30.499,249.379C30.499,245.121 30.57,241.716 30.712,239.161C30.664,239.161 30.002,239.398 28.725,239.871C27.874,240.202 27.188,240.368 26.667,240.368C25.91,240.368 25.225,240.107 24.61,239.587C23.096,238.31 22.15,237.459 21.772,237.033C21.015,236.181 20.636,235.283 20.636,234.337C20.636,234.005 20.684,233.627 20.778,233.201C20.92,232.539 24.373,231.191 31.137,229.157C38.422,226.934 42.348,225.633 42.916,225.255C43.436,225.065 44.015,224.64 44.654,223.977C45.293,223.315 45.99,222.937 46.747,222.842C47.788,222.748 49.159,223.433 50.862,224.9C52.754,226.555 53.7,228.282 53.7,230.079C53.7,230.789 53.511,231.498 53.133,232.208Z" style="fill:none;"/>
            <path d="M74.774,244.98C74.584,245.973 73.686,246.659 72.077,247.037C70.185,247.51 68.979,248.054 68.459,248.669L56.893,262.008L56.893,272.793C56.893,273.834 57.189,274.886 57.78,275.951C58.372,277.015 58.667,277.831 58.667,278.399C58.667,278.966 58.502,279.605 58.171,280.314C57.366,282.112 55.734,283.011 53.275,283.011C51.572,283.011 50.224,282.467 49.23,281.379C48.568,280.669 48.237,279.77 48.237,278.682C48.237,278.304 48.284,277.689 48.379,276.838C48.474,275.986 48.521,275.3 48.521,274.78L48.521,248.243C48.521,247.818 48.332,247.297 47.953,246.682C47.575,246.068 47.386,245.571 47.386,245.192C47.386,244.909 47.48,244.578 47.669,244.199C48.284,243.064 50.2,242.496 53.417,242.496C55.924,242.496 57.343,243.088 57.674,244.27C57.816,244.743 57.887,245.145 57.887,245.476C57.887,245.997 57.697,246.399 57.319,246.682C56.941,246.966 56.751,247.25 56.751,247.534L56.893,250.088L62.995,243.631C63.705,242.827 64.45,242.023 65.23,241.219C66.011,240.415 66.921,239.966 67.962,239.871C69.57,239.729 71.119,240.084 72.609,240.935C74.1,241.787 74.845,242.898 74.845,244.27C74.845,244.507 74.821,244.743 74.774,244.98Z" style="fill:none;"/>
            <path d="M89.461,227.951C89.603,228.093 89.674,228.329 89.674,228.66C89.674,229.086 89.532,229.819 89.248,230.86C88.917,232.137 88.704,233.012 88.609,233.485C88.515,233.958 88.562,234.999 88.751,236.607C88.751,237.6 88.456,238.251 87.864,238.558C87.273,238.866 86.528,239.02 85.629,239.02C84.352,239.02 83.051,238.759 81.727,238.239C80.119,237.577 79.315,236.702 79.315,235.614C79.315,235.283 79.456,234.821 79.74,234.23C80.024,233.639 80.19,233.154 80.237,232.776C80.332,232.397 80.332,231.451 80.237,229.938C80.142,228.755 80.379,227.951 80.946,227.525C81.703,226.957 83.051,226.674 84.991,226.674C87.119,226.674 88.609,227.099 89.461,227.951ZM90.383,245.263C90.383,245.926 90.017,246.954 89.283,248.35C88.55,249.745 88.184,250.892 88.184,251.791L88.184,272.651C88.184,273.597 88.444,274.934 88.964,276.66C89.485,278.387 89.745,279.581 89.745,280.243C89.745,281.189 89.366,281.899 88.609,282.372C87.427,283.129 86.15,283.507 84.778,283.507C82.98,283.507 81.703,282.892 80.946,281.662C79.953,280.149 79.456,275.631 79.456,268.11C79.456,266.313 79.492,263.51 79.563,259.702C79.634,255.895 79.669,253.116 79.669,251.365C79.669,250.703 79.598,249.84 79.456,248.776C79.315,247.711 79.244,246.943 79.244,246.47C79.244,244.909 79.811,243.561 80.946,242.425C81.42,241.952 82.295,241.716 83.572,241.716C84.849,241.716 86.126,241.917 87.403,242.319C88.68,242.721 89.496,243.182 89.851,243.702C90.206,244.223 90.383,244.743 90.383,245.263Z" style="fill:none;"/>
            <path d="M129.833,242.851C130.164,243.466 130.33,244.105 130.33,244.767C130.33,245.713 129.928,246.895 129.124,248.314C127.988,250.206 127.326,251.413 127.137,251.933C125.056,257.893 122.383,265.414 119.119,274.496C118.504,277.618 117.724,279.841 116.778,281.166C115.595,282.963 113.845,283.791 111.527,283.649C109.304,283.507 107.814,283.058 107.057,282.301C106.49,281.733 106.206,280.858 106.206,279.676L106.206,278.186C106.206,277.334 106.135,276.625 105.993,276.057L98.756,250.088C98.614,249.521 97.999,248.598 96.911,247.321C96.012,246.328 95.657,245.405 95.847,244.554C96.32,242.473 97.999,241.432 100.884,241.432C101.499,241.432 102.067,241.479 102.587,241.574C104.432,241.952 106.253,245.192 108.051,251.294C109.517,257.018 111.007,262.718 112.521,268.394L119.9,245.689C120.278,244.554 120.586,243.773 120.822,243.348C121.248,242.591 121.851,242 122.631,241.574C123.412,241.148 124.37,240.935 125.505,240.935C127.681,240.935 129.124,241.574 129.833,242.851Z" style="fill:none;"/>
            <path d="M146.082,227.951C146.223,228.093 146.294,228.329 146.294,228.66C146.294,229.086 146.152,229.819 145.869,230.86C145.538,232.137 145.325,233.012 145.23,233.485C145.135,233.958 145.183,234.999 145.372,236.607C145.372,237.6 145.076,238.251 144.485,238.558C143.894,238.866 143.149,239.02 142.25,239.02C140.973,239.02 139.672,238.759 138.348,238.239C136.739,237.577 135.935,236.702 135.935,235.614C135.935,235.283 136.077,234.821 136.361,234.23C136.645,233.639 136.81,233.154 136.858,232.776C136.952,232.397 136.952,231.451 136.858,229.938C136.763,228.755 137,227.951 137.567,227.525C138.324,226.957 139.672,226.674 141.611,226.674C143.74,226.674 145.23,227.099 146.082,227.951ZM147.004,245.263C147.004,245.926 146.637,246.954 145.904,248.35C145.171,249.745 144.804,250.892 144.804,251.791L144.804,272.651C144.804,273.597 145.065,274.934 145.585,276.66C146.105,278.387 146.365,279.581 146.365,280.243C146.365,281.189 145.987,281.899 145.23,282.372C144.048,283.129 142.77,283.507 141.399,283.507C139.601,283.507 138.324,282.892 137.567,281.662C136.574,280.149 136.077,275.631 136.077,268.11C136.077,266.313 136.113,263.51 136.184,259.702C136.255,255.895 136.29,253.116 136.29,251.365C136.29,250.703 136.219,249.84 136.077,248.776C135.935,247.711 135.864,246.943 135.864,246.47C135.864,244.909 136.432,243.561 137.567,242.425C138.04,241.952 138.915,241.716 140.192,241.716C141.47,241.716 142.747,241.917 144.024,242.319C145.301,242.721 146.117,243.182 146.472,243.702C146.827,244.223 147.004,244.743 147.004,245.263Z" style="fill:none;"/>
            <path d="M182.764,278.186C182.055,280.503 180.305,281.662 177.514,281.662C176.568,281.662 175.811,281.497 175.243,281.166C174.486,280.645 173.966,279.605 173.682,278.044C173.115,275.348 172.547,273.243 171.979,271.729C171.838,274.331 170.418,276.968 167.722,279.64C165.026,282.313 162.306,283.649 159.563,283.649C156.11,283.649 153.721,281.355 152.396,276.767C151.923,275.064 151.687,273.455 151.687,271.942C151.687,267.543 153.934,263.782 158.427,260.66C162.117,258.484 165.83,256.332 169.567,254.204C169.756,253.399 169.851,252.619 169.851,251.862C169.851,250.396 169.449,249.532 168.645,249.272C167.841,249.012 167.155,248.882 166.587,248.882C165.594,248.882 164.778,249.201 164.139,249.84C163.501,250.478 162.897,251.082 162.33,251.649C161.762,252.028 161.029,252.903 160.13,254.274C159.421,255.362 158.64,255.954 157.789,256.048C156.559,256.19 155.447,255.764 154.454,254.771C153.461,253.778 152.964,252.619 152.964,251.294C152.964,250.538 153.153,249.852 153.532,249.237C154.62,247.439 156.251,245.878 158.427,244.554C161.739,242.567 165.877,241.574 170.844,241.574C174.013,241.574 176.189,243.088 177.372,246.115C178.129,248.149 178.696,251.957 179.075,257.538C179.5,264.303 180.021,269.246 180.636,272.368C180.73,272.982 181.132,273.763 181.842,274.709C182.551,275.655 182.906,276.483 182.906,277.192C182.906,277.523 182.859,277.855 182.764,278.186ZM170.418,260.731C168.999,261.488 167.592,262.269 166.197,263.073C164.801,263.877 163.512,264.941 162.33,266.266C160.627,268.205 159.775,269.861 159.775,271.232C159.775,272.368 160.201,273.55 161.053,274.78C161.526,275.442 162.046,275.773 162.614,275.773C163.843,275.773 165.18,274.402 166.622,271.658C168.065,268.914 169.331,265.272 170.418,260.731Z" style="fill:none;"/>
            <path d="M44.37,161.255C43.85,162.248 42.738,162.745 41.035,162.745C38.812,162.745 37.511,162.816 37.133,162.958C35.383,163.715 33.349,164.566 31.031,165.512C30.889,169.107 30.818,173.057 30.818,177.361C30.818,186.112 31.078,195.076 31.599,204.252C31.599,204.915 31.847,205.778 32.344,206.842C32.84,207.907 33.089,208.675 33.089,209.148C33.089,209.763 32.876,210.331 32.45,210.851C31.409,212.27 29.848,212.98 27.767,212.98C25.97,212.98 24.255,212.495 22.623,211.525C20.991,210.555 20.057,209.408 19.82,208.084C19.678,207.374 20.045,206.57 20.92,205.672C21.795,204.773 22.233,203.921 22.233,203.117C21.902,193.704 21.736,185.474 21.736,178.425C21.736,174.168 21.807,170.763 21.949,168.208C21.902,168.208 21.239,168.445 19.962,168.918C19.111,169.249 18.425,169.414 17.905,169.414C17.148,169.414 16.462,169.154 15.847,168.634C14.333,167.357 13.387,166.505 13.009,166.08C12.252,165.228 11.874,164.329 11.874,163.383C11.874,163.052 11.921,162.674 12.015,162.248C12.157,161.586 15.61,160.238 22.375,158.204C29.659,155.981 33.585,154.68 34.153,154.301C34.673,154.112 35.253,153.686 35.891,153.024C36.53,152.362 37.227,151.984 37.984,151.889C39.025,151.794 40.397,152.48 42.1,153.947C43.992,155.602 44.938,157.329 44.938,159.126C44.938,159.836 44.749,160.545 44.37,161.255Z" style="fill:rgb(248,14,14);fill-rule:nonzero;stroke:black;stroke-width:0.99px;"/>
            <path d="M66.011,174.026C65.822,175.02 64.923,175.706 63.315,176.084C61.423,176.557 60.216,177.101 59.696,177.716L48.131,191.055L48.131,201.84C48.131,202.881 48.426,203.933 49.018,204.997C49.609,206.062 49.904,206.878 49.904,207.445C49.904,208.013 49.739,208.652 49.408,209.361C48.604,211.159 46.972,212.057 44.512,212.057C42.809,212.057 41.461,211.513 40.468,210.425C39.805,209.716 39.474,208.817 39.474,207.729C39.474,207.351 39.522,206.736 39.616,205.884C39.711,205.033 39.758,204.347 39.758,203.827L39.758,177.29C39.758,176.865 39.569,176.344 39.191,175.729C38.812,175.114 38.623,174.618 38.623,174.239C38.623,173.955 38.718,173.624 38.907,173.246C39.522,172.111 41.437,171.543 44.654,171.543C47.161,171.543 48.58,172.134 48.911,173.317C49.053,173.79 49.124,174.192 49.124,174.523C49.124,175.043 48.935,175.445 48.556,175.729C48.178,176.013 47.989,176.297 47.989,176.581L48.131,179.135L54.233,172.678C54.942,171.874 55.687,171.07 56.468,170.266C57.248,169.462 58.159,169.012 59.199,168.918C60.808,168.776 62.357,169.131 63.847,169.982C65.337,170.834 66.082,171.945 66.082,173.317C66.082,173.553 66.058,173.79 66.011,174.026Z" style="fill:rgb(248,14,14);fill-rule:nonzero;stroke:black;stroke-width:0.99px;"/>
            <path d="M80.698,156.998C80.84,157.14 80.911,157.376 80.911,157.707C80.911,158.133 80.769,158.866 80.485,159.907C80.154,161.184 79.941,162.059 79.847,162.532C79.752,163.005 79.799,164.046 79.989,165.654C79.989,166.647 79.693,167.298 79.102,167.605C78.51,167.913 77.765,168.066 76.867,168.066C75.59,168.066 74.289,167.806 72.964,167.286C71.356,166.624 70.552,165.749 70.552,164.661C70.552,164.329 70.694,163.868 70.978,163.277C71.261,162.686 71.427,162.201 71.474,161.822C71.569,161.444 71.569,160.498 71.474,158.984C71.38,157.802 71.616,156.998 72.184,156.572C72.941,156.004 74.289,155.72 76.228,155.72C78.357,155.72 79.847,156.146 80.698,156.998ZM81.621,174.31C81.621,174.972 81.254,176.001 80.521,177.397C79.788,178.792 79.421,179.939 79.421,180.838L79.421,201.698C79.421,202.644 79.681,203.98 80.201,205.707C80.722,207.434 80.982,208.628 80.982,209.29C80.982,210.236 80.604,210.946 79.847,211.419C78.664,212.176 77.387,212.554 76.015,212.554C74.218,212.554 72.941,211.939 72.184,210.709C71.19,209.196 70.694,204.678 70.694,197.157C70.694,195.36 70.729,192.557 70.8,188.749C70.871,184.941 70.907,182.162 70.907,180.412C70.907,179.75 70.836,178.887 70.694,177.822C70.552,176.758 70.481,175.989 70.481,175.516C70.481,173.955 71.049,172.607 72.184,171.472C72.657,170.999 73.532,170.763 74.809,170.763C76.086,170.763 77.363,170.964 78.641,171.366C79.918,171.768 80.734,172.229 81.088,172.749C81.443,173.27 81.621,173.79 81.621,174.31Z" style="fill:rgb(248,14,14);fill-rule:nonzero;stroke:black;stroke-width:0.99px;"/>
            <path d="M121.071,171.898C121.402,172.513 121.567,173.151 121.567,173.814C121.567,174.76 121.165,175.942 120.361,177.361C119.226,179.253 118.564,180.459 118.374,180.98C116.293,186.94 113.62,194.461 110.357,203.543C109.742,206.665 108.961,208.888 108.015,210.213C106.833,212.01 105.082,212.838 102.765,212.696C100.541,212.554 99.051,212.105 98.295,211.348C97.727,210.78 97.443,209.905 97.443,208.723L97.443,207.232C97.443,206.381 97.372,205.672 97.23,205.104L89.993,179.135C89.851,178.567 89.236,177.645 88.148,176.368C87.25,175.375 86.895,174.452 87.084,173.601C87.557,171.519 89.236,170.479 92.122,170.479C92.737,170.479 93.304,170.526 93.825,170.621C95.669,170.999 97.49,174.239 99.288,180.341C100.754,186.065 102.244,191.765 103.758,197.441L111.137,174.736C111.515,173.601 111.823,172.82 112.059,172.394C112.485,171.638 113.088,171.046 113.869,170.621C114.649,170.195 115.607,169.982 116.742,169.982C118.918,169.982 120.361,170.621 121.071,171.898Z" style="fill:rgb(248,14,14);fill-rule:nonzero;stroke:black;stroke-width:0.99px;"/>
            <path d="M137.319,156.998C137.461,157.14 137.532,157.376 137.532,157.707C137.532,158.133 137.39,158.866 137.106,159.907C136.775,161.184 136.562,162.059 136.467,162.532C136.373,163.005 136.42,164.046 136.609,165.654C136.609,166.647 136.314,167.298 135.722,167.605C135.131,167.913 134.386,168.066 133.487,168.066C132.21,168.066 130.909,167.806 129.585,167.286C127.977,166.624 127.173,165.749 127.173,164.661C127.173,164.329 127.314,163.868 127.598,163.277C127.882,162.686 128.048,162.201 128.095,161.822C128.189,161.444 128.189,160.498 128.095,158.984C128,157.802 128.237,156.998 128.804,156.572C129.561,156.004 130.909,155.72 132.849,155.72C134.977,155.72 136.467,156.146 137.319,156.998ZM138.241,174.31C138.241,174.972 137.875,176.001 137.141,177.397C136.408,178.792 136.042,179.939 136.042,180.838L136.042,201.698C136.042,202.644 136.302,203.98 136.822,205.707C137.342,207.434 137.603,208.628 137.603,209.29C137.603,210.236 137.224,210.946 136.467,211.419C135.285,212.176 134.008,212.554 132.636,212.554C130.838,212.554 129.561,211.939 128.804,210.709C127.811,209.196 127.314,204.678 127.314,197.157C127.314,195.36 127.35,192.557 127.421,188.749C127.492,184.941 127.527,182.162 127.527,180.412C127.527,179.75 127.456,178.887 127.314,177.822C127.173,176.758 127.102,175.989 127.102,175.516C127.102,173.955 127.669,172.607 128.804,171.472C129.277,170.999 130.153,170.763 131.43,170.763C132.707,170.763 133.984,170.964 135.261,171.366C136.538,171.768 137.354,172.229 137.709,172.749C138.064,173.27 138.241,173.79 138.241,174.31Z" style="fill:rgb(248,14,14);fill-rule:nonzero;stroke:black;stroke-width:0.99px;"/>
            <path d="M174.002,207.232C173.292,209.55 171.542,210.709 168.751,210.709C167.805,210.709 167.048,210.544 166.481,210.213C165.724,209.692 165.203,208.652 164.92,207.091C164.352,204.394 163.784,202.289 163.217,200.776C163.075,203.377 161.656,206.014 158.96,208.687C156.263,211.36 153.543,212.696 150.8,212.696C147.347,212.696 144.958,210.402 143.634,205.813C143.161,204.111 142.924,202.502 142.924,200.989C142.924,196.59 145.171,192.829 149.665,189.707C153.354,187.531 157.067,185.379 160.804,183.25C160.994,182.446 161.088,181.666 161.088,180.909C161.088,179.442 160.686,178.579 159.882,178.319C159.078,178.059 158.392,177.929 157.824,177.929C156.831,177.929 156.015,178.248 155.376,178.887C154.738,179.525 154.135,180.128 153.567,180.696C152.999,181.074 152.266,181.95 151.368,183.321C150.658,184.409 149.878,185 149.026,185.095C147.796,185.237 146.685,184.811 145.691,183.818C144.698,182.825 144.201,181.666 144.201,180.341C144.201,179.584 144.39,178.899 144.769,178.284C145.857,176.486 147.489,174.925 149.665,173.601C152.976,171.614 157.115,170.621 162.081,170.621C165.251,170.621 167.427,172.134 168.609,175.162C169.366,177.196 169.934,181.003 170.312,186.585C170.738,193.349 171.258,198.292 171.873,201.414C171.968,202.029 172.37,202.81 173.079,203.756C173.789,204.702 174.144,205.53 174.144,206.239C174.144,206.57 174.096,206.901 174.002,207.232ZM161.656,189.778C160.237,190.535 158.829,191.315 157.434,192.119C156.039,192.924 154.75,193.988 153.567,195.312C151.864,197.252 151.013,198.907 151.013,200.279C151.013,201.414 151.438,202.597 152.29,203.827C152.763,204.489 153.283,204.82 153.851,204.82C155.081,204.82 156.417,203.448 157.86,200.705C159.302,197.961 160.568,194.319 161.656,189.778Z" style="fill:rgb(248,14,14);fill-rule:nonzero;stroke:black;stroke-width:0.99px;"/>
            <path d="M190.676,210.567C189.73,212.365 187.979,213.264 185.425,213.264C183.06,213.264 181.404,212.459 180.458,210.851C180.175,210.378 180.033,209.858 180.033,209.29C180.033,208.817 180.198,208.037 180.529,206.949C180.86,205.861 181.026,204.962 181.026,204.252L180.742,158.417C180.742,155.91 180.742,154.633 180.742,154.585C180.884,153.97 181.546,153.462 182.729,153.06C183.911,152.658 185.165,152.457 186.489,152.457C188.429,152.457 189.659,152.811 190.179,153.521C190.699,154.23 190.959,154.964 190.959,155.72C190.959,156.241 190.77,157.104 190.392,158.31C190.013,159.516 189.824,160.498 189.824,161.255L189.824,203.827C189.824,204.536 190.025,205.47 190.427,206.629C190.829,207.788 191.03,208.628 191.03,209.148C191.03,209.669 190.912,210.142 190.676,210.567Z" style="fill:rgb(248,14,14);fill-rule:nonzero;stroke:black;stroke-width:0.99px;"/>
            <path d="M53.133,232.208C52.613,233.201 51.501,233.698 49.798,233.698C47.575,233.698 46.274,233.769 45.896,233.911C44.145,234.668 42.111,235.519 39.794,236.465C39.652,240.06 39.581,244.01 39.581,248.314C39.581,257.065 39.841,266.029 40.361,275.206C40.361,275.868 40.61,276.731 41.106,277.795C41.603,278.86 41.851,279.628 41.851,280.101C41.851,280.716 41.638,281.284 41.213,281.804C40.172,283.223 38.611,283.933 36.53,283.933C34.732,283.933 33.018,283.448 31.386,282.478C29.754,281.509 28.82,280.362 28.583,279.037C28.441,278.328 28.808,277.523 29.683,276.625C30.558,275.726 30.995,274.875 30.995,274.07C30.664,264.657 30.499,256.427 30.499,249.379C30.499,245.121 30.57,241.716 30.712,239.161C30.664,239.161 30.002,239.398 28.725,239.871C27.874,240.202 27.188,240.368 26.667,240.368C25.91,240.368 25.225,240.107 24.61,239.587C23.096,238.31 22.15,237.459 21.772,237.033C21.015,236.181 20.636,235.283 20.636,234.337C20.636,234.005 20.684,233.627 20.778,233.201C20.92,232.539 24.373,231.191 31.137,229.157C38.422,226.934 42.348,225.633 42.916,225.255C43.436,225.065 44.015,224.64 44.654,223.977C45.293,223.315 45.99,222.937 46.747,222.842C47.788,222.748 49.159,223.433 50.862,224.9C52.754,226.555 53.7,228.282 53.7,230.079C53.7,230.789 53.511,231.498 53.133,232.208Z" style="fill:rgb(248,14,14);fill-rule:nonzero;stroke:black;stroke-width:0.99px;"/>
            <path d="M74.774,244.98C74.584,245.973 73.686,246.659 72.077,247.037C70.185,247.51 68.979,248.054 68.459,248.669L56.893,262.008L56.893,272.793C56.893,273.834 57.189,274.886 57.78,275.951C58.372,277.015 58.667,277.831 58.667,278.399C58.667,278.966 58.502,279.605 58.171,280.314C57.366,282.112 55.734,283.011 53.275,283.011C51.572,283.011 50.224,282.467 49.23,281.379C48.568,280.669 48.237,279.77 48.237,278.682C48.237,278.304 48.284,277.689 48.379,276.838C48.474,275.986 48.521,275.3 48.521,274.78L48.521,248.243C48.521,247.818 48.332,247.297 47.953,246.682C47.575,246.068 47.386,245.571 47.386,245.192C47.386,244.909 47.48,244.578 47.669,244.199C48.284,243.064 50.2,242.496 53.417,242.496C55.924,242.496 57.343,243.088 57.674,244.27C57.816,244.743 57.887,245.145 57.887,245.476C57.887,245.997 57.697,246.399 57.319,246.682C56.941,246.966 56.751,247.25 56.751,247.534L56.893,250.088L62.995,243.631C63.705,242.827 64.45,242.023 65.23,241.219C66.011,240.415 66.921,239.966 67.962,239.871C69.57,239.729 71.119,240.084 72.609,240.935C74.1,241.787 74.845,242.898 74.845,244.27C74.845,244.507 74.821,244.743 74.774,244.98Z" style="fill:rgb(248,14,14);fill-rule:nonzero;stroke:black;stroke-width:0.99px;"/>
            <path d="M89.461,227.951C89.603,228.093 89.674,228.329 89.674,228.66C89.674,229.086 89.532,229.819 89.248,230.86C88.917,232.137 88.704,233.012 88.609,233.485C88.515,233.958 88.562,234.999 88.751,236.607C88.751,237.6 88.456,238.251 87.864,238.558C87.273,238.866 86.528,239.02 85.629,239.02C84.352,239.02 83.051,238.759 81.727,238.239C80.119,237.577 79.315,236.702 79.315,235.614C79.315,235.283 79.456,234.821 79.74,234.23C80.024,233.639 80.19,233.154 80.237,232.776C80.332,232.397 80.332,231.451 80.237,229.938C80.142,228.755 80.379,227.951 80.946,227.525C81.703,226.957 83.051,226.674 84.991,226.674C87.119,226.674 88.609,227.099 89.461,227.951ZM90.383,245.263C90.383,245.926 90.017,246.954 89.283,248.35C88.55,249.745 88.184,250.892 88.184,251.791L88.184,272.651C88.184,273.597 88.444,274.934 88.964,276.66C89.485,278.387 89.745,279.581 89.745,280.243C89.745,281.189 89.366,281.899 88.609,282.372C87.427,283.129 86.15,283.507 84.778,283.507C82.98,283.507 81.703,282.892 80.946,281.662C79.953,280.149 79.456,275.631 79.456,268.11C79.456,266.313 79.492,263.51 79.563,259.702C79.634,255.895 79.669,253.116 79.669,251.365C79.669,250.703 79.598,249.84 79.456,248.776C79.315,247.711 79.244,246.943 79.244,246.47C79.244,244.909 79.811,243.561 80.946,242.425C81.42,241.952 82.295,241.716 83.572,241.716C84.849,241.716 86.126,241.917 87.403,242.319C88.68,242.721 89.496,243.182 89.851,243.702C90.206,244.223 90.383,244.743 90.383,245.263Z" style="fill:rgb(248,14,14);fill-rule:nonzero;stroke:black;stroke-width:0.99px;"/>
            <path d="M129.833,242.851C130.164,243.466 130.33,244.105 130.33,244.767C130.33,245.713 129.928,246.895 129.124,248.314C127.988,250.206 127.326,251.413 127.137,251.933C125.056,257.893 122.383,265.414 119.119,274.496C118.504,277.618 117.724,279.841 116.778,281.166C115.595,282.963 113.845,283.791 111.527,283.649C109.304,283.507 107.814,283.058 107.057,282.301C106.49,281.733 106.206,280.858 106.206,279.676L106.206,278.186C106.206,277.334 106.135,276.625 105.993,276.057L98.756,250.088C98.614,249.521 97.999,248.598 96.911,247.321C96.012,246.328 95.657,245.405 95.847,244.554C96.32,242.473 97.999,241.432 100.884,241.432C101.499,241.432 102.067,241.479 102.587,241.574C104.432,241.952 106.253,245.192 108.051,251.294C109.517,257.018 111.007,262.718 112.521,268.394L119.9,245.689C120.278,244.554 120.586,243.773 120.822,243.348C121.248,242.591 121.851,242 122.631,241.574C123.412,241.148 124.37,240.935 125.505,240.935C127.681,240.935 129.124,241.574 129.833,242.851Z" style="fill:rgb(248,14,14);fill-rule:nonzero;stroke:black;stroke-width:0.99px;"/>
            <path d="M146.082,227.951C146.223,228.093 146.294,228.329 146.294,228.66C146.294,229.086 146.152,229.819 145.869,230.86C145.538,232.137 145.325,233.012 145.23,233.485C145.135,233.958 145.183,234.999 145.372,236.607C145.372,237.6 145.076,238.251 144.485,238.558C143.894,238.866 143.149,239.02 142.25,239.02C140.973,239.02 139.672,238.759 138.348,238.239C136.739,237.577 135.935,236.702 135.935,235.614C135.935,235.283 136.077,234.821 136.361,234.23C136.645,233.639 136.81,233.154 136.858,232.776C136.952,232.397 136.952,231.451 136.858,229.938C136.763,228.755 137,227.951 137.567,227.525C138.324,226.957 139.672,226.674 141.611,226.674C143.74,226.674 145.23,227.099 146.082,227.951ZM147.004,245.263C147.004,245.926 146.637,246.954 145.904,248.35C145.171,249.745 144.804,250.892 144.804,251.791L144.804,272.651C144.804,273.597 145.065,274.934 145.585,276.66C146.105,278.387 146.365,279.581 146.365,280.243C146.365,281.189 145.987,281.899 145.23,282.372C144.048,283.129 142.77,283.507 141.399,283.507C139.601,283.507 138.324,282.892 137.567,281.662C136.574,280.149 136.077,275.631 136.077,268.11C136.077,266.313 136.113,263.51 136.184,259.702C136.255,255.895 136.29,253.116 136.29,251.365C136.29,250.703 136.219,249.84 136.077,248.776C135.935,247.711 135.864,246.943 135.864,246.47C135.864,244.909 136.432,243.561 137.567,242.425C138.04,241.952 138.915,241.716 140.192,241.716C141.47,241.716 142.747,241.917 144.024,242.319C145.301,242.721 146.117,243.182 146.472,243.702C146.827,244.223 147.004,244.743 147.004,245.263Z" style="fill:rgb(248,14,14);fill-rule:nonzero;stroke:black;stroke-width:0.99px;"/>
            <path d="M182.764,278.186C182.055,280.503 180.305,281.662 177.514,281.662C176.568,281.662 175.811,281.497 175.243,281.166C174.486,280.645 173.966,279.605 173.682,278.044C173.115,275.348 172.547,273.243 171.979,271.729C171.838,274.331 170.418,276.968 167.722,279.64C165.026,282.313 162.306,283.649 159.563,283.649C156.11,283.649 153.721,281.355 152.396,276.767C151.923,275.064 151.687,273.455 151.687,271.942C151.687,267.543 153.934,263.782 158.427,260.66C162.117,258.484 165.83,256.332 169.567,254.204C169.756,253.399 169.851,252.619 169.851,251.862C169.851,250.396 169.449,249.532 168.645,249.272C167.841,249.012 167.155,248.882 166.587,248.882C165.594,248.882 164.778,249.201 164.139,249.84C163.501,250.478 162.897,251.082 162.33,251.649C161.762,252.028 161.029,252.903 160.13,254.274C159.421,255.362 158.64,255.954 157.789,256.048C156.559,256.19 155.447,255.764 154.454,254.771C153.461,253.778 152.964,252.619 152.964,251.294C152.964,250.538 153.153,249.852 153.532,249.237C154.62,247.439 156.251,245.878 158.427,244.554C161.739,242.567 165.877,241.574 170.844,241.574C174.013,241.574 176.189,243.088 177.372,246.115C178.129,248.149 178.696,251.957 179.075,257.538C179.5,264.303 180.021,269.246 180.636,272.368C180.73,272.982 181.132,273.763 181.842,274.709C182.551,275.655 182.906,276.483 182.906,277.192C182.906,277.523 182.859,277.855 182.764,278.186ZM170.418,260.731C168.999,261.488 167.592,262.269 166.197,263.073C164.801,263.877 163.512,264.941 162.33,266.266C160.627,268.205 159.775,269.861 159.775,271.232C159.775,272.368 160.201,273.55 161.053,274.78C161.526,275.442 162.046,275.773 162.614,275.773C163.843,275.773 165.18,274.402 166.622,271.658C168.065,268.914 169.331,265.272 170.418,260.731Z" style="fill:rgb(248,14,14);fill-rule:nonzero;stroke:black;stroke-width:0.99px;"/>
        </g>
    </g>
</svg>
